# xmcd CD database file
#
# Track frame offsets:
#	150
#	11920
#	25683
#	41798
#	61913
#	79018
#	98225
#	112618
#	124865
#	141915
#	156613
#	169705
#	186163
#	199835
#	212783
#	229803
#
# Disc length: 3288 seconds
#
# Revision: 0
# Processed by: cddbd v1.4PL0 Copyright (c) Steve Scherf et al.
# Submitted via: CDex 1.40Release
#
DISCID=dc0cd610
DTITLE=Diverse - Country Dreams
DYEAR=1987
DGENRE=Country
TTITLE0=Some Broken Hearts Never Mend
TTITLE1=Annie's Song
TTITLE2=To All The Girls I've Loved Before
TTITLE3=Angel Flying Too Vlose To The Ground
TTITLE4=Islands In The Stream
TTITLE5=Help Me Make It Through The Night
TTITLE6=Wichita Lineman
TTITLE7=Don't It Make My Brown Eyes Blue
TTITLE8=You Decorated My Life
TTITLE9=Take Me Home, Country Roads
TTITLE10=By the Time I Get To Phoenix
TTITLE11=Me And Bobby McGhee
TTITLE12=I Will Always Love You
TTITLE13=The Streets Of Laredo
TTITLE14=Always On My Mind
TTITLE15=Sunday Morning Coming Down
EXTD=YEAR: 1987 ID3G: 2
EXTT0=
EXTT1=
EXTT2=
EXTT3=
EXTT4=
EXTT5=
EXTT6=
EXTT7=
EXTT8=
EXTT9=
EXTT10=
EXTT11=
EXTT12=
EXTT13=
EXTT14=
EXTT15=
PLAYORDER=
